<svg xmlns="http://www.w3.org/2000/svg" viewBox="0 0 100 100" fill="#000000" id="Patreon-Logo-Fill--Streamline-Phosphor-Fill" height="100" width="100">
  <desc>
    Patreon Logo Fill Streamline Icon: https://streamlinehq.com
  </desc>
  <path d="M93.5565234375 32.3826171875c0 18.601875 -13.47046875 23.805859375 -24.295859375 27.979921875000002 -3.8156640625000002 1.47 -7.418046875000001 2.858359375 -10.0767578125 4.6641015625 -5.1676953125 3.502578125 -8.434375 9.8816796875 -11.592148437499999 16.052031250000002 -4.50984375 8.8109375 -9.1784375 17.921328125 -19.58640625 17.921328125 -5.85734375 0 -11.1656640625 -5.2811328125 -15.357890625000001 -15.2716796875s-6.4925 -23.138906249999998 -6.174921875 -35.1394140625c0.49 -18.443046875 6.615 -28.4381640625 11.6601953125 -33.574101562500005C24.915625 8.118515625 34.1212890625 3.53609375 44.75609375 1.766640625c9.886210937500001 -1.6423828125000002 20.0265234375 -0.62609375 28.5516015625 2.858359375 12.867070312500001 5.2675 20.248828125000003 15.3851171875 20.248828125000003 27.7576171875Z" stroke-width="0.3906"></path>
</svg>